<?xml version="1.0" standalone="no"?>
<!DOCTYPE svg PUBLIC "-//W3C//DTD SVG 1.1//EN" "http://www.w3.org/Graphics/SVG/1.1/DTD/svg11.dtd" >
<svg xmlns="http://www.w3.org/2000/svg">
<metadata>Generated by IcoMoon</metadata>
<defs>
<font id="icomoon" horiz-adv-x="1024">
<font-face units-per-em="1024" ascent="960" descent="-64" />
<missing-glyph horiz-adv-x="1024" />
<glyph unicode="&#x20;" horiz-adv-x="512" d="" />
<glyph unicode="&#xe900;" glyph-name="arrow_left" d="M589.088 169.376l-278.624 278.624 278.624 278.624 45.248-45.248-233.376-233.376 233.376-233.376z" />
<glyph unicode="&#xe901;" glyph-name="arrow_right" d="M434.944 169.376l-45.248 45.248 233.344 233.376-233.376 233.376 45.248 45.248 278.656-278.624z" />
<glyph unicode="&#xe902;" glyph-name="arrow_up" d="M745.376 297.376l-233.376 233.376-233.376-233.376-45.248 45.248 278.624 278.624 278.624-278.624z" />
<glyph unicode="&#xe903;" glyph-name="hot-f" d="M938.667 64h-853.333c-46.933 0-85.333 38.4-85.333 85.333v597.333c0 46.933 38.4 85.333 85.333 85.333h853.333c46.933 0 85.333-38.4 85.333-85.333v-597.333c0-46.933-38.4-85.333-85.333-85.333zM742.4 524.8v-204.8h51.2v204.8h81.067v51.2h-213.333v-51.2h81.067zM204.8 576h-55.467v-256h51.2v106.667h106.667v-106.667h51.2v256h-51.2v-93.867h-106.667l4.267 93.867zM448 576c-25.6 0-42.667-17.067-42.667-42.667v-170.667c0-25.6 17.067-42.667 42.667-42.667h128c25.6 0 42.667 17.067 42.667 42.667v170.667c0 25.6-17.067 42.667-42.667 42.667h-128zM554.667 371.2h-85.333c-4.267 0-8.533 4.267-8.533 8.533v128c0 4.267 4.267 8.533 8.533 8.533h85.333c4.267 0 8.533-4.267 8.533-8.533v-128s-4.267-8.533-8.533-8.533z" />
<glyph unicode="&#xe904;" glyph-name="uniE904" d="M410.7 148c6.7-3.3 13.8-5.1 21.2-5.1 5.8 0 11.6 1.1 17.2 3.2 4.6 1.9 29.2 12.2 61.3 35.1 10.1 7.2 12.4 21.2 5.2 31.2-7.2 10.1-21.2 12.4-31.2 5.2-28.5-20.3-49.7-29.1-52.5-30-0.2 0-0.6 0-0.8 0.1-111.6 58.5-186.6 163.3-216.8 302.9-21.3 98.4-13.9 180.1-12.1 195.5 0.1 0.9 0.8 1.5 1.7 1.5 143.6 4.8 217.1 72.1 226.8 81.7h0.1c0.7 0.7 1.8 0.7 2.5 0 87.2-82.4 233.8-83.3 235.3-83.3 1 0 1.7-0.7 1.7-1.7 0.5-10.4 0.8-20.7 0.9-30.7 0.1-12.3 10.1-22.1 22.4-22.1h0.3c12.4 0.1 22.3 10.3 22.1 22.7-0.1 10.5-0.4 21.3-1 32.4-1.3 24.8-21.7 44.3-46.4 44.3-1.3 0-131.1 1.6-204.6 71.1-18.6 17.5-48 16.8-65.6-1.6l-0.1-0.1c-2.4-2.4-65.6-63.5-195.9-67.8-23-0.8-41.8-17.9-44.7-41.4-1.8-16.6-9.9-104.6 12.9-209.7 33.1-153.1 116-268.3 240.1-333.4zM451.6 381.3c0-18.778 15.222-34 34-34s34 15.222 34 34v0c0 18.778-15.222 34-34 34s-34-15.222-34-34v0zM723.4 381.3c0-18.778 15.222-34 34-34s34 15.222 34 34v0c0 18.778-15.222 34-34 34s-34-15.222-34-34v0zM568.4 608.7v0.1c-69.7 0-126.5-55.7-128.6-124.8-38.9-12.2-67.1-48.6-67.1-91.5v-22.4c0-49.1 37.1-89.6 84.7-95.2v-23.5c0-12.4 10-22.4 22.4-22.4s22.4 10 22.4 22.4v22.8h240.2v-22.8c0-12.4 10-22.4 22.4-22.4s22.4 10 22.4 22.4v24c45.8 7.2 81 46.8 81 94.6v22.4c0 40.7-25.5 75.4-61.3 89.3-1 70.2-58.3 127-128.7 127h-109.8zM772.4 443.6c28.2 0 51.1-22.9 51.1-51.1v-22.4c0-28.2-22.9-51.1-51.1-51.1h-303.7c-28.2 0-51.1 22.9-51.1 51.1v22.4c0 28.2 22.9 51.1 51.1 51.1h303.7zM761.8 488.4h-276.9c4.2 42.4 40.1 75.6 83.5 75.6h109.8c43.6 0 79.4-33.2 83.6-75.6zM825.1 123.5h-627.2c-12.3 0-22.4-10.1-22.4-22.4s10.1-22.4 22.4-22.4h627.2c12.3 0 22.4 10.1 22.4 22.4s-10.1 22.4-22.4 22.4zM932.7 123.5h-44.8c-12.3 0-22.4-10.1-22.4-22.4s10.1-22.4 22.4-22.4h44.8c12.3 0 22.4 10.1 22.4 22.4s-10.1 22.4-22.4 22.4zM135.1 123.5h-44.8c-12.3 0-22.4-10.1-22.4-22.4s10.1-22.4 22.4-22.4h44.8c12.3 0 22.4 10.1 22.4 22.4s-10.1 22.4-22.4 22.4z" />
<glyph unicode="&#xe905;" d="M546.5 552h-67.1c-55.5 0-100.6 45.1-100.6 100.6v133.6c0 55.5 45.1 100.6 100.6 100.6h67.1c55.5 0 100.6-45.1 100.6-100.6v-133.6c0-55.5-45.1-100.6-100.6-100.6zM479.5 836.8c-27.9 0-50.6-22.7-50.6-50.6v-133.6c0-27.9 22.7-50.6 50.6-50.6h67.1c27.9 0 50.6 22.7 50.6 50.6v133.6c0 27.9-22.7 50.6-50.6 50.6h-67.1z" />
<glyph unicode="&#xe906;" d="M936.2 34.6h-846.4c-32 0-58 26-58 58v598.4c0 32 26 58 58 58h846.4c32 0 58-26 58-58v-598.3c0-32.1-26-58.1-58-58.1z" />
<glyph unicode="&#xe907;" d="M936.2 19.6h-846.4c-40.3 0-73 32.7-73 73v598.4c0 40.3 32.7 73 73 73h846.4c40.3 0 73-32.7 73-73v-598.3c0-40.3-32.8-73.1-73-73.1zM89.8 734c-23.7 0-43-19.3-43-43v-598.3c0-23.7 19.3-43 43-43h846.4c23.7 0 43 19.3 43 43v598.3c0 23.7-19.3 43-43 43h-846.4z" />
<glyph unicode="&#xe908;" d="M200.5 749h129v-714.3h-129z" />
<glyph unicode="&#xe909;" d="M329.5 19.6h-129c-8.3 0-15 6.7-15 15v714.4c0 8.3 6.7 15 15 15h129c8.3 0 15-6.7 15-15v-714.3c0-8.4-6.8-15.1-15-15.1zM215.5 49.6h99v684.4h-99v-684.4z" />
<glyph unicode="&#xe90a;" d="M696.5 749h129v-714.3h-129z" />
<glyph unicode="&#xe90b;" d="M825.5 19.6h-129c-8.3 0-15 6.7-15 15v714.4c0 8.3 6.7 15 15 15h129c8.3 0 15-6.7 15-15v-714.3c0-8.4-6.7-15.1-15-15.1zM711.5 49.6h99v684.4h-99v-684.4z" />
<glyph unicode="&#xe90c;" d="M390.6 327.2c-8.3 0-15 6.7-15 15v144.7c0 8.3 6.7 15 15 15s15-6.7 15-15v-144.7c0-8.3-6.7-15-15-15zM635.4 327.2c-8.3 0-15 6.7-15 15v144.7c0 8.3 6.7 15 15 15s15-6.7 15-15v-144.7c0-8.3-6.8-15-15-15z" />
<glyph unicode="&#xe90d;" d="M777 849.618c0 7.391-5.991 13.382-13.382 13.382h-471.236c-7.391 0-13.382-5.991-13.382-13.382v-802.236c0-7.391 5.991-13.382 13.382-13.382h471.236c7.391 0 13.382 5.991 13.382 13.382v802.236zM498.030 829h143.857c8.315 0 15.055-6.685 15.055-15s-6.74-15-15.055-15h-143.857c-8.315 0-15.055 6.685-15.055 15s6.74 15 15.055 15zM437.811 827.417c8.315 0 15.055-6.74 15.055-15.055s-6.74-15.055-15.055-15.055-15.055 6.74-15.055 15.055 6.74 15.055 15.055 15.055zM527.721 55.437c-25.406 0-46.001 20.595-46.001 46.001s20.595 46.001 46.001 46.001 46.001-20.595 46.001-46.001c0-25.405-20.595-46.001-46.001-46.001zM731 172h-408v582h408v-582z" />
<glyph unicode="&#xe90e;" d="M810 849.163c0 25.867-20.97 46.837-46.837 46.837h-471.326c-25.867 0-46.837-20.97-46.837-46.837v-802.325c0-25.868 20.97-46.838 46.837-46.838h471.325c25.868 0 46.838 20.97 46.838 46.837v802.326zM777 47.382c0-7.391-5.991-13.382-13.382-13.382h-471.236c-7.391 0-13.382 5.991-13.382 13.382v802.236c0 7.391 5.991 13.382 13.382 13.382h471.236c7.391 0 13.382-5.991 13.382-13.382v-802.236z" />
<glyph unicode="&#xe90f;" d="M323 754h408v-582h-408z" />
<glyph unicode="&#xe910;" d="M481.72 101.438c0-25.406 20.595-46.001 46.001-46.001s46.001 20.595 46.001 46.001v0c0 25.406-20.595 46.001-46.001 46.001s-46.001-20.595-46.001-46.001v0z" />
<glyph unicode="&#xe911;" d="M422.756 812.362c0-8.315 6.74-15.055 15.055-15.055s15.055 6.74 15.055 15.055v0c0 8.315-6.74 15.055-15.055 15.055s-15.055-6.74-15.055-15.055v0z" />
<glyph unicode="&#xe912;" d="M498.030 799h143.857c8.315 0 15.055 6.685 15.055 15s-6.74 15-15.055 15h-143.857c-8.315 0-15.055-6.685-15.055-15s6.74-15 15.055-15z" />
<glyph unicode="&#xe913;" d="M655.1 121.7h-290.2c-153.8 0-278.9 125.1-278.9 278.8s125.1 278.9 278.9 278.9h290.2c153.8 0 278.9-125.1 278.9-278.9s-125.1-278.8-278.9-278.8zM364.9 588.6c-103.7 0-188-84.3-188-188s84.3-188 188-188h290.2c103.7 0 188 84.3 188 188s-84.3 188-188 188h-290.2z" />
<glyph unicode="&#xe914;" d="M510 588.6c-25.1 0-45.4 20.3-45.4 45.4v169.1c0 25.1 20.3 45.4 45.4 45.4s45.4-20.3 45.4-45.4v-169.1c0-25.1-20.3-45.4-45.4-45.4z" />
<glyph unicode="&#xe915;" d="M375.4 277.3c-25.1 0-45.4 20.3-45.4 45.4v155.7c0 25.1 20.3 45.4 45.4 45.4s45.4-20.3 45.4-45.4v-155.6c0-25.2-20.3-45.5-45.4-45.5z" />
<glyph unicode="&#xe916;" d="M451.1 355.1h-151.4c-25.1 0-45.4 20.3-45.4 45.4s20.3 45.4 45.4 45.4h151.4c25.1 0 45.4-20.3 45.4-45.4s-20.3-45.4-45.4-45.4z" />
<glyph unicode="&#xe917;" d="M695.1 757.7h-185.1c-25.1 0-45.4 20.3-45.4 45.4s20.3 45.4 45.4 45.4h185.1c25.1 0 45.4-20.3 45.4-45.4s-20.3-45.4-45.4-45.4z" />
<glyph unicode="&#xe918;" d="M549.1 400.5c0-25.46 20.64-46.1 46.1-46.1s46.1 20.64 46.1 46.1v0c0 25.46-20.64 46.1-46.1 46.1s-46.1-20.64-46.1-46.1v0z" />
<glyph unicode="&#xe919;" d="M670.2 400.5c0-25.46 20.64-46.1 46.1-46.1s46.1 20.64 46.1 46.1v0c0 25.46-20.64 46.1-46.1 46.1s-46.1-20.64-46.1-46.1v0z" />
</font>
</defs>
</svg>
